<svg id="business-24px" xmlns="http://www.w3.org/2000/svg" width="50" height="50" viewBox="0 0 50 50">
  <path id="Path_313" data-name="Path 313" d="M0,0H50V50H0Z" fill="none"/>
  <path id="Path_314" data-name="Path 314" d="M25,12.778V3H2V47H48V12.778ZM11.2,42.111H6.6V37.222h4.6Zm0-9.778H6.6V27.444h4.6Zm0-9.778H6.6V17.667h4.6Zm0-9.778H6.6V7.889h4.6Zm9.2,29.333H15.8V37.222h4.6Zm0-9.778H15.8V27.444h4.6Zm0-9.778H15.8V17.667h4.6Zm0-9.778H15.8V7.889h4.6Zm23,29.333H25V37.222h4.6V32.333H25V27.444h4.6V22.556H25V17.667H43.4ZM38.8,22.556H34.2v4.889h4.6Zm0,9.778H34.2v4.889h4.6Z" transform="translate(0 0)" fill="#1db3f3"/>
</svg>
