<svg xmlns="http://www.w3.org/2000/svg" width="50" height="50" viewBox="0 0 50 50">
  <g id="box" transform="translate(0 -15.499)">
    <g id="Group_612" data-name="Group 612" transform="translate(0 15.499)">
      <path id="Path_317" data-name="Path 317" d="M44.348,32.651l5.4-8.481a1.644,1.644,0,0,0,.174-1.376A1.514,1.514,0,0,0,49,21.815L31.321,15.578a1.42,1.42,0,0,0-1.68.615L25,23.6l-4.641-7.41a1.42,1.42,0,0,0-1.68-.615L1,21.815a1.514,1.514,0,0,0-.926.978A1.645,1.645,0,0,0,.253,24.17l5.4,8.481-5.4,8.481a1.645,1.645,0,0,0-.174,1.377A1.514,1.514,0,0,0,1,43.487l4.953,1.748V57.7a1.554,1.554,0,0,0,1,1.479l17.572,6.235a1.381,1.381,0,0,0,.937,0l17.573-6.235a1.554,1.554,0,0,0,1-1.479V45.234L49,43.486a1.514,1.514,0,0,0,.926-.978,1.644,1.644,0,0,0-.174-1.377ZM31.459,18.913l14.777,5.214L41.989,30.8,27.283,25.58ZM3.764,24.127l14.777-5.214,4.176,6.668L8.012,30.8Zm0,17.048L8.012,34.5l14.706,5.218-4.176,6.668Zm19.771,20.6-14.648-5.2V46.268l9.793,3.455a1.42,1.42,0,0,0,1.68-.615l3.176-5.07ZM25,37.244,12.055,32.651,25,28.057l12.946,4.593ZM41.114,56.579l-14.648,5.2V44.038l3.176,5.071a1.42,1.42,0,0,0,1.68.615l9.793-3.455Zm-9.655-10.19-4.176-6.668L41.989,34.5l4.248,6.671C45.985,41.264,31.895,46.234,31.459,46.389Z" transform="translate(0 -15.499)" fill="#1db3f3"/>
    </g>
  </g>
</svg>
