<svg xmlns="http://www.w3.org/2000/svg" width="24" height="24" viewBox="0 0 24 24">
  <g id="box" transform="translate(0 -15.499)">
    <g id="Group_611" data-name="Group 611" transform="translate(0 15.499)">
      <path id="Path_313" data-name="Path 313" d="M21.287,23.732l2.592-4.071A.789.789,0,0,0,23.963,19a.727.727,0,0,0-.444-.47l-8.484-2.994a.681.681,0,0,0-.806.3L12,19.389,9.773,15.832a.682.682,0,0,0-.806-.3L.482,18.531A.727.727,0,0,0,.038,19a.789.789,0,0,0,.084.661l2.592,4.071L.122,27.8a.789.789,0,0,0-.084.661.727.727,0,0,0,.445.47l2.377.839v5.985a.746.746,0,0,0,.481.71l8.434,2.993a.663.663,0,0,0,.45,0l8.435-2.993a.746.746,0,0,0,.481-.71V29.772l2.377-.839a.727.727,0,0,0,.444-.47.789.789,0,0,0-.084-.661ZM15.1,17.138l7.093,2.5-2.039,3.2-7.059-2.5ZM1.807,19.64l7.093-2.5,2,3.2-7.059,2.5Zm0,8.183,2.039-3.2,7.059,2.5-2,3.2Zm9.49,9.889L4.266,35.217V30.268l4.7,1.659a.681.681,0,0,0,.806-.3L11.3,29.2ZM12,25.937l-6.214-2.2L12,21.527l6.214,2.2Zm7.734,9.281L12.7,37.712V29.2l1.524,2.434a.681.681,0,0,0,.806.3l4.7-1.659ZM15.1,30.326l-2-3.2,7.059-2.5,2.039,3.2Z" transform="translate(0 -15.499)" fill="#03539c"/>
    </g>
  </g>
</svg>
