<svg xmlns="http://www.w3.org/2000/svg" width="21" height="24" viewBox="0 0 21 24">
  <path id="Path_228" data-name="Path 228" d="M16.5-15a6.007,6.007,0,0,0-6-6,6.007,6.007,0,0,0-6,6H0V-.75A3.75,3.75,0,0,0,3.75,3h13.5A3.75,3.75,0,0,0,21-.75V-15Zm-6-3.75A3.754,3.754,0,0,1,14.25-15H6.75A3.754,3.754,0,0,1,10.5-18.75Zm8.25,18a1.5,1.5,0,0,1-1.5,1.5H3.75a1.5,1.5,0,0,1-1.5-1.5v-12H4.5v1.875A1.125,1.125,0,0,0,5.625-9.75,1.125,1.125,0,0,0,6.75-10.875V-12.75h7.5v1.875A1.125,1.125,0,0,0,15.375-9.75,1.125,1.125,0,0,0,16.5-10.875V-12.75h2.25Z" transform="translate(0 21)" fill="#fff"/>
</svg>
