<svg id="card_giftcard-24px" xmlns="http://www.w3.org/2000/svg" width="24" height="24" viewBox="0 0 24 24">
  <path id="Path_303" data-name="Path 303" d="M0,0H24V24H0Z" fill="none"/>
  <path id="Path_304" data-name="Path 304" d="M20,6H17.82A2.993,2.993,0,0,0,12.5,3.35l-.5.67-.5-.68A2.994,2.994,0,0,0,6.18,6H4A1.985,1.985,0,0,0,2.01,8L2,19a1.993,1.993,0,0,0,2,2H20a1.993,1.993,0,0,0,2-2V8A1.993,1.993,0,0,0,20,6ZM15,4a1,1,0,1,1-1,1A1,1,0,0,1,15,4ZM9,4A1,1,0,1,1,8,5,1,1,0,0,1,9,4ZM20,19H4V17H20Zm0-5H4V9A1,1,0,0,1,5,8H9.08L7.6,10.02A1,1,0,1,0,9.21,11.2L12,7.4l2.79,3.8a1,1,0,1,0,1.61-1.18L14.92,8H19a1,1,0,0,1,1,1Z" fill="#03539c"/>
</svg>
