<svg id="done_outline-24px" xmlns="http://www.w3.org/2000/svg" width="24" height="24" viewBox="0 0 24 24">
  <path id="Path_296" data-name="Path 296" d="M0,0H24V24H0Z" fill="none"/>
  <path id="Path_297" data-name="Path 297" d="M20.47,5.63a.984.984,0,0,1,0,1.4L9.13,18.37a.984.984,0,0,1-1.4,0l-4.2-4.2a.99.99,0,0,1,1.4-1.4l3.5,3.5L19.07,5.63A.984.984,0,0,1,20.47,5.63ZM18.36,3.51,8.43,13.44,5.64,10.65a2,2,0,0,0-2.83,0l-1.4,1.4a2,2,0,0,0,0,2.83l5.6,5.6a2,2,0,0,0,2.83,0L22.59,7.74a2,2,0,0,0,0-2.83l-1.4-1.4a2,2,0,0,0-2.83,0Z" fill="#fff"/>
</svg>
