<svg xmlns="http://www.w3.org/2000/svg" width="23.904" height="23.904" viewBox="0 0 23.904 23.904">
  <path id="iconfinder_01_111032" d="M31.949,53.862a1.991,1.991,0,0,0,1.992,1.992h19.92a1.991,1.991,0,0,0,1.992-1.992V33.942a1.991,1.991,0,0,0-1.992-1.992H33.941a1.991,1.991,0,0,0-1.992,1.992v19.92Zm12.45-1V44.9H42.407V41.91H44.4c0-5.134.219-5.478,6.474-5.478V39.42c-3.3,0-2.988.184-2.988,2.49h2.988V44.9H47.885v7.968H44.4Z" transform="translate(-31.949 -31.95)" fill="#03539c" fill-rule="evenodd"/>
</svg>
