<svg id="card_giftcard-24px" xmlns="http://www.w3.org/2000/svg" width="50" height="50" viewBox="0 0 50 50">
  <path id="Path_303" data-name="Path 303" d="M0,0H50V50H0Z" fill="none"/>
  <path id="Path_304" data-name="Path 304" d="M43.4,11.474H38.386A7.3,7.3,0,0,0,38.8,9.105,7,7,0,0,0,31.9,2a6.843,6.843,0,0,0-5.75,3.2L25,6.784,23.85,5.174A6.877,6.877,0,0,0,18.1,2a7,7,0,0,0-6.9,7.105,7.3,7.3,0,0,0,.414,2.368H6.6a4.635,4.635,0,0,0-4.577,4.737L2,42.263A4.654,4.654,0,0,0,6.6,47H43.4A4.654,4.654,0,0,0,48,42.263V16.211A4.654,4.654,0,0,0,43.4,11.474ZM31.9,6.737a2.369,2.369,0,1,1-2.3,2.368A2.342,2.342,0,0,1,31.9,6.737Zm-13.8,0a2.369,2.369,0,1,1-2.3,2.368A2.342,2.342,0,0,1,18.1,6.737ZM43.4,42.263H6.6V37.526H43.4Zm0-11.842H6.6V18.579a2.342,2.342,0,0,1,2.3-2.368h9.384l-3.4,4.784a2.4,2.4,0,0,0,.506,3.316,2.262,2.262,0,0,0,3.2-.521l6.417-9,6.417,9a2.262,2.262,0,0,0,3.2.521,2.4,2.4,0,0,0,.506-3.316l-3.4-4.784H41.1a2.342,2.342,0,0,1,2.3,2.368Z" fill="#1db3f3"/>
</svg>
