<svg id="iconfinder_38-instagram_1161953" xmlns="http://www.w3.org/2000/svg" width="24" height="24" viewBox="0 0 24 24">
  <path id="Path_12" data-name="Path 12" d="M21.594,16.7a6.194,6.194,0,1,0,6.194,6.194A6.205,6.205,0,0,0,21.594,16.7Zm0,10.161a3.968,3.968,0,1,1,3.968-3.968A3.986,3.986,0,0,1,21.594,26.861Z" transform="translate(-9.594 -10.942)" fill="#03539c"/>
  <ellipse id="Ellipse_5" data-name="Ellipse 5" cx="1.403" cy="1.403" rx="1.403" ry="1.403" transform="translate(17.032 4.21)" fill="#03539c"/>
  <path id="Path_13" data-name="Path 13" d="M25.464,6.784A6.891,6.891,0,0,0,20.384,4.8H10.416A6.629,6.629,0,0,0,3.4,11.816v9.919a6.962,6.962,0,0,0,2.032,5.177A7.061,7.061,0,0,0,10.464,28.8h9.871a7.145,7.145,0,0,0,5.081-1.887A6.927,6.927,0,0,0,27.4,21.784V11.816A6.936,6.936,0,0,0,25.464,6.784Zm-.194,15a4.728,4.728,0,0,1-1.4,3.532,5,5,0,0,1-3.532,1.258H10.464a5,5,0,0,1-3.532-1.258,4.864,4.864,0,0,1-1.306-3.581V11.816A4.824,4.824,0,0,1,6.932,8.284a4.921,4.921,0,0,1,3.532-1.258h9.968a4.824,4.824,0,0,1,3.532,1.306,4.993,4.993,0,0,1,1.306,3.484v9.968Z" transform="translate(-3.4 -4.8)" fill="#03539c"/>
</svg>
