<svg id="no_encryption-24px" xmlns="http://www.w3.org/2000/svg" width="50" height="50" viewBox="0 0 50 50">
  <path id="Path_320" data-name="Path 320" d="M0,0H50V50H0ZM0,0H50V50H0ZM0,0H50V50H0ZM0,0H50V50H0Z" fill="none"/>
  <path id="Path_321" data-name="Path 321" d="M17.333,11.909c0-3.731,3.377-6.764,7.531-6.764S32.4,8.178,32.4,11.909v4.364H21.074l4.859,4.364H39.44V32.767L44.3,37.131V20.636a4.645,4.645,0,0,0-4.859-4.364H37.011V11.909C37.011,5.887,31.569,1,24.864,1c-5.636,0-10.349,3.469-11.71,8.16l4.178,3.753ZM6.425,9.313,3,12.389,7.956,16.84a4.289,4.289,0,0,0-2.527,3.8V42.455a4.645,4.645,0,0,0,4.859,4.364H41.335L43.765,49l3.425-3.076Zm3.863,33.142V20.636h1.895L36.477,42.455Z" transform="translate(0 0)" fill="#1db3f3"/>
</svg>
