<svg id="person_outline-24px" xmlns="http://www.w3.org/2000/svg" width="50" height="50" viewBox="0 0 50 50">
  <path id="Path_318" data-name="Path 318" d="M0,0H50V50H0Z" fill="none"/>
  <path id="Path_319" data-name="Path 319" d="M25,8.988A5.513,5.513,0,1,1,19.487,14.5,5.512,5.512,0,0,1,25,8.988m0,23.625c7.8,0,16.013,3.833,16.013,5.513v2.888H8.988V38.125c0-1.68,8.216-5.513,16.012-5.513M25,4A10.5,10.5,0,1,0,35.5,14.5,10.5,10.5,0,0,0,25,4Zm0,23.625c-7.009,0-21,3.518-21,10.5V46H46V38.125C46,31.143,32.009,27.625,25,27.625Z" fill="#fff"/>
</svg>
