<svg id="Group_342" data-name="Group 342" xmlns="http://www.w3.org/2000/svg" width="101" height="20" viewBox="0 0 101 20">
  <path id="Polygon_5" data-name="Polygon 5" d="M10.5,0l2.625,7.438,7.875.2-6.253,4.8L16.989,20,10.5,15.528,4.011,20l2.242-7.562L0,7.639l7.875-.2Z" transform="translate(0 0)" fill="#ffbe0b"/>
  <path id="Polygon_6" data-name="Polygon 6" d="M10.5,0l2.625,7.438,7.875.2-6.253,4.8L16.989,20,10.5,15.528,4.011,20l2.242-7.562L0,7.639l7.875-.2Z" transform="translate(20 0)" fill="#ffbe0b"/>
  <path id="Polygon_7" data-name="Polygon 7" d="M10.5,0l2.625,7.438,7.875.2-6.253,4.8L16.989,20,10.5,15.528,4.011,20l2.242-7.562L0,7.639l7.875-.2Z" transform="translate(40 0)" fill="#ffbe0b"/>
  <g id="Polygon_9" data-name="Polygon 9" transform="translate(80 0)" fill="#f2f2f2">
    <path d="M 16.54851913452148 19.39258575439453 L 10.64186000823975 15.322021484375 L 10.5 15.22425174713135 L 10.35813999176025 15.322021484375 L 4.451480388641357 19.39258575439453 L 6.492350101470947 12.50876235961914 L 6.541200160980225 12.34400177001953 L 6.404860019683838 12.23937225341797 L 0.7127394080162048 7.871157646179199 L 7.881400108337402 7.6876220703125 L 8.053460121154785 7.683211803436279 L 8.110750198364258 7.520901679992676 L 10.5 0.7511777281761169 L 12.88924980163574 7.520892143249512 L 12.94653987884521 7.683201789855957 L 13.1185998916626 7.687612056732178 L 20.28726196289062 7.871157169342041 L 14.59514045715332 12.23937225341797 L 14.45880031585693 12.34400177001953 L 14.50765037536621 12.50876235961914 L 16.54851913452148 19.39258575439453 Z" stroke="none"/>
    <path d="M 10.5 1.502363204956055 L 8.231929779052734 7.928722381591797 L 1.42547607421875 8.102992057800293 L 6.829730033874512 12.25029182434082 L 4.89232063293457 18.7851676940918 L 10.5 14.92064189910889 L 16.10766983032227 18.78516006469727 L 14.17026996612549 12.25029182434082 L 19.57452392578125 8.102992057800293 L 12.76807022094727 7.928722381591797 L 10.5 1.502363204956055 M 10.5 1.9073486328125e-06 L 13.125 7.437691688537598 L 21 7.639322280883789 L 14.74734020233154 12.43770217895508 L 16.98934936523438 20.00000190734863 L 10.5 15.52787208557129 L 4.010639190673828 20.00000190734863 L 6.252659797668457 12.43770217895508 L 0 7.639322280883789 L 7.875 7.437691688537598 L 10.5 1.9073486328125e-06 Z" stroke="none" fill="#707070"/>
  </g>
  <g id="Group_282" data-name="Group 282" transform="translate(60.5)">
    <path id="Path_120" data-name="Path 120" d="M10.5,0l2.625,7.438,7.875.2-6.253,4.8L16.989,20,10.5,15.528,4.011,20l2.242-7.562L0,7.639l7.875-.2Z" transform="translate(0 0)" fill="#ffbe0b"/>
    <path id="Intersection_1" data-name="Intersection 1" d="M0,4.472V20l2.624-7.437,7.875-.2-6.253-4.8L6.488,0Z" transform="translate(10.499 20) rotate(180)" fill="#ffbe0b"/>
  </g>
</svg>
