<svg xmlns="http://www.w3.org/2000/svg" width="23.913" height="23.912" viewBox="0 0 23.913 23.912">
  <path id="iconfinder_youtube-square_1608383" d="M142.307,146.292v-2.444q0-.778-.451-.778a.73.73,0,0,0-.514.249v3.487a.73.73,0,0,0,.514.249Q142.307,147.055,142.307,146.292Zm2.865-1.9H146.2v-.529q0-.794-.514-.794t-.514.794Zm-8.889-4.141v1.09h-1.245v6.585h-1.152v-6.585H132.67v-1.09Zm3.129,1.962v5.713h-1.043V147.3a1.655,1.655,0,0,1-1.183.7.612.612,0,0,1-.654-.436,2.652,2.652,0,0,1-.093-.841v-4.515h1.027v4.2a2.356,2.356,0,0,0,.016.4q.016.234.234.234.311,0,.654-.483v-4.359Zm3.923,1.728v2.273a4.059,4.059,0,0,1-.109,1.136.8.8,0,0,1-.825.654,1.41,1.41,0,0,1-1.059-.638v.56H140.3v-7.675h1.043v2.506a1.385,1.385,0,0,1,1.059-.623.8.8,0,0,1,.825.654A4.14,4.14,0,0,1,143.335,143.942Zm3.908,2.008v.14a5.2,5.2,0,0,1-.031.669,1.464,1.464,0,0,1-.234.623,1.4,1.4,0,0,1-1.245.623,1.5,1.5,0,0,1-1.261-.592,2.189,2.189,0,0,1-.327-1.339v-2.008a2.273,2.273,0,0,1,.311-1.339,1.48,1.48,0,0,1,1.245-.592,1.4,1.4,0,0,1,1.214.592,2.231,2.231,0,0,1,.327,1.339v1.183h-2.071v1.012q0,.794.529.794a.451.451,0,0,0,.467-.4q0-.016.008-.109t.008-.257v-.335Zm-7.021-12.828v2.429q0,.794-.5.794t-.5-.794v-2.429q0-.81.5-.81T140.221,133.122Zm8.3,11.1a19.913,19.913,0,0,0-.3-4.048,2.13,2.13,0,0,0-.669-1.144,2.1,2.1,0,0,0-1.183-.537,64.045,64.045,0,0,0-6.414-.234,63.829,63.829,0,0,0-6.4.234,2.079,2.079,0,0,0-1.191.537,2.151,2.151,0,0,0-.662,1.144,19.48,19.48,0,0,0-.311,4.048,19.075,19.075,0,0,0,.311,4.048,2.188,2.188,0,0,0,.662,1.136,2.042,2.042,0,0,0,1.175.545q2.133.234,6.414.234t6.414-.234a2.042,2.042,0,0,0,1.175-.545,2.188,2.188,0,0,0,.662-1.136A19.078,19.078,0,0,0,148.519,144.222Zm-11.754-10.135,1.4-4.608H137l-.794,3.036-.825-3.036h-1.214l.374,1.074.358,1.074a21.354,21.354,0,0,1,.716,2.46v3.129h1.152Zm4.5,1.261v-2.024a2.307,2.307,0,0,0-.327-1.354,1.449,1.449,0,0,0-1.214-.592,1.4,1.4,0,0,0-1.214.592,2.307,2.307,0,0,0-.327,1.354v2.024a2.307,2.307,0,0,0,.327,1.354,1.4,1.4,0,0,0,1.214.592,1.449,1.449,0,0,0,1.214-.592A2.221,2.221,0,0,0,141.264,135.348Zm2.818,1.868h1.043v-5.76h-1.043v4.406q-.342.483-.654.483-.234,0-.249-.249a2.355,2.355,0,0,1-.016-.4v-4.234H142.12v4.561a2.906,2.906,0,0,0,.093.856.655.655,0,0,0,.669.42,1.739,1.739,0,0,0,1.2-.7Zm7.831-4.733v14.945a4.491,4.491,0,0,1-4.484,4.484H132.484A4.491,4.491,0,0,1,128,147.429V132.484A4.491,4.491,0,0,1,132.484,128h14.945a4.491,4.491,0,0,1,4.484,4.484Z" transform="translate(-128 -128)" fill="#03539c"/>
</svg>
